<?xml version="1.0" encoding="UTF-8" standalone="no"?>
<!-- Created with Inkscape (http://www.inkscape.org/) -->

<svg
   xmlns:dc="http://purl.org/dc/elements/1.1/"
   xmlns:cc="http://creativecommons.org/ns#"
   xmlns:rdf="http://www.w3.org/1999/02/22-rdf-syntax-ns#"
   xmlns:svg="http://www.w3.org/2000/svg"
   xmlns="http://www.w3.org/2000/svg"
   xmlns:sodipodi="http://sodipodi.sourceforge.net/DTD/sodipodi-0.dtd"
   xmlns:inkscape="http://www.inkscape.org/namespaces/inkscape"
   id="svg3004"
   version="1.1"
   inkscape:version="0.48.3.1 r9886"
   width="893"
   height="453"
   xml:space="preserve"
   sodipodi:docname="JEClevels.svg"><metadata
     id="metadata3010"><rdf:RDF><cc:Work
         rdf:about=""><dc:format>image/svg+xml</dc:format><dc:type
           rdf:resource="http://purl.org/dc/dcmitype/StillImage" /><dc:title></dc:title></cc:Work></rdf:RDF></metadata><defs
     id="defs3008"><clipPath
       clipPathUnits="userSpaceOnUse"
       id="clipPath3020"><path
         d="M 0,0 800,0 800,600 0,600 0,0 z"
         id="path3022"
         inkscape:connector-curvature="0" /></clipPath><clipPath
       clipPathUnits="userSpaceOnUse"
       id="clipPath3042"><path
         d="m 614,496.0313 144.9037,0 0,49.96872 -144.9037,0 0,-49.96872 z"
         id="path3044"
         inkscape:connector-curvature="0" /></clipPath><clipPath
       clipPathUnits="userSpaceOnUse"
       id="clipPath3054"><path
         d="m 614,496 145,0 0,49.99997 -145,0 L 614,496 z"
         id="path3056"
         inkscape:connector-curvature="0" /></clipPath><clipPath
       clipPathUnits="userSpaceOnUse"
       id="clipPath3122"><path
         d="M 0,0 800,0 800,600 0,600 0,0 z"
         id="path3124"
         inkscape:connector-curvature="0" /></clipPath><clipPath
       clipPathUnits="userSpaceOnUse"
       id="clipPath3166"><path
         d="m 35,580 730,0 0,-86 -730,0 0,86 z"
         id="path3168"
         inkscape:connector-curvature="0" /></clipPath><clipPath
       clipPathUnits="userSpaceOnUse"
       id="clipPath3172"><path
         d="M 0,0 800,0 800,600 0,600 0,0 z"
         id="path3174"
         inkscape:connector-curvature="0" /></clipPath><clipPath
       clipPathUnits="userSpaceOnUse"
       id="clipPath3186"><path
         d="m 35,464 730,0 0,-245 -730,0 0,245 z"
         id="path3188"
         inkscape:connector-curvature="0" /></clipPath><clipPath
       clipPathUnits="userSpaceOnUse"
       id="clipPath3192"><path
         d="M 0,0 800,0 800,600 0,600 0,0 z"
         id="path3194"
         inkscape:connector-curvature="0" /></clipPath><clipPath
       clipPathUnits="userSpaceOnUse"
       id="clipPath3254"><path
         d="M 0,0 800,0 800,600 0,600 0,0 z"
         id="path3256"
         inkscape:connector-curvature="0" /></clipPath></defs><sodipodi:namedview
     pagecolor="#ffffff"
     bordercolor="#666666"
     borderopacity="1"
     objecttolerance="10"
     gridtolerance="10"
     guidetolerance="10"
     inkscape:pageopacity="0"
     inkscape:pageshadow="2"
     inkscape:window-width="1440"
     inkscape:window-height="824"
     id="namedview3006"
     showgrid="false"
     showguides="true"
     inkscape:guide-bbox="true"
     inkscape:zoom="0.82933335"
     inkscape:cx="622.63674"
     inkscape:cy="384.31857"
     inkscape:window-x="0"
     inkscape:window-y="24"
     inkscape:window-maximized="1"
     inkscape:current-layer="g3012"
     inkscape:snap-global="false"><sodipodi:guide
       orientation="0,1"
       position="174.83923,222.46785"
       id="guide3378" /><sodipodi:guide
       orientation="0,1"
       position="202.57235,201.36656"
       id="guide3380" /><sodipodi:guide
       orientation="0,1"
       position="301.82773,303.10666"
       id="guide3211" /><sodipodi:guide
       orientation="0,1"
       position="344.88507,204.62897"
       id="guide3213" /></sodipodi:namedview><g
     id="g3012"
     inkscape:groupmode="layer"
     inkscape:label="DP2013_011(1)"
     transform="matrix(1.25,0,0,-1.25,0,453)"><g
   id="g3014"
   transform="matrix(1.5548159,0,0,1.5548159,-247.72136,-87.989575)" /><g
   id="g3118"
   transform="matrix(1.5548159,0,0,1.5548159,-247.72136,-87.989575)"><g
     id="g3120"
     clip-path="url(#clipPath3122)"><path
       d="m 170,80 0,46 c 0,8.2843 6.7157,15 15,15 l 46,0 c 8.2843,0 15,-6.7157 15,-15 l 0,-46 c 0,-8.2843 -6.7157,-15 -15,-15 l -46,0 c -8.2843,0 -15,6.7157 -15,15 z"
       style="fill:#b3e8ff;fill-opacity:1;fill-rule:nonzero;stroke:none"
       id="path3126"
       inkscape:connector-curvature="0" /><g
       id="g3128"
       transform="matrix(1,0,0,-1,0,600)"><path
         d="m 170,520 0,-46 c 0,-8.2843 6.7157,-15 15,-15 l 46,0 c 8.2843,0 15,6.7157 15,15 l 0,46 c 0,8.2843 -6.7157,15 -15,15 l -46,0 c -8.2843,0 -15,-6.7157 -15,-15 z"
         style="fill:none;stroke:#031b7d;stroke-width:3;stroke-linecap:butt;stroke-linejoin:miter;stroke-miterlimit:4;stroke-opacity:1;stroke-dasharray:none"
         id="path3130"
         inkscape:connector-curvature="0" /></g><g
       id="g3132"
       transform="matrix(1,0,0,-1,174.9597,137)"><text
   transform="translate(15.01208,35)"
   id="text3134"><tspan
     style="font-size:32px;font-variant:normal;font-weight:bold;writing-mode:lr-tb;fill:#031b7d;fill-opacity:1;fill-rule:nonzero;stroke:none;font-family:HelveticaNeue;-inkscape-font-specification:HelveticaNeue-Bold"
     x="0 18.976"
     y="0"
     sodipodi:role="line"
     id="tspan3136">L1</tspan></text>

</g><g
       id="g3138"
       transform="matrix(1,0,0,-1,174.9597,137)"><text
   transform="translate(4.5,59)"
   id="text3140"><tspan
     style="font-size:16px;font-variant:normal;font-weight:bold;writing-mode:lr-tb;fill:#031b7d;fill-opacity:1;fill-rule:nonzero;stroke:none;font-family:HelveticaNeue;-inkscape-font-specification:HelveticaNeue-Bold"
     x="0 10.672 22.528 26.976 31.424 45.936001"
     y="0"
     sodipodi:role="line"
     id="tspan3142">PU, MC</tspan></text>

</g><path
       d="m 344,132 0,46 c 0,8.2843 6.7157,15 15,15 l 46,0 c 8.2843,0 15,-6.7157 15,-15 l 0,-46 c 0,-8.2843 -6.7157,-15 -15,-15 l -46,0 c -8.2843,0 -15,6.7157 -15,15 z"
       style="fill:#b3e8ff;fill-opacity:1;fill-rule:nonzero;stroke:none"
       id="path3144"
       inkscape:connector-curvature="0" /><g
       id="g3146"
       transform="matrix(1,0,0,-1,0,600)"><path
         d="m 344,468 0,-46 c 0,-8.2843 6.7157,-15 15,-15 l 46,0 c 8.2843,0 15,6.7157 15,15 l 0,46 c 0,8.2843 -6.7157,15 -15,15 l -46,0 c -8.2843,0 -15,-6.7157 -15,-15 z"
         style="fill:none;stroke:#031b7d;stroke-width:3;stroke-linecap:butt;stroke-linejoin:miter;stroke-miterlimit:4;stroke-opacity:1;stroke-dasharray:none"
         id="path3148"
         inkscape:connector-curvature="0" /></g><g
       id="g3150"
       transform="matrix(1,0,0,-1,348.8372,187)"><text
   transform="translate(15.66273,35)"
   id="text3152"><tspan
     style="font-size:32px;font-variant:normal;font-weight:bold;writing-mode:lr-tb;fill:#031b7d;fill-opacity:1;fill-rule:nonzero;stroke:none;font-family:HelveticaNeue;-inkscape-font-specification:HelveticaNeue-Bold"
     x="0 18.976"
     y="0"
     sodipodi:role="line"
     id="tspan3154">L3</tspan></text>

</g><g
       id="g3156"
       transform="matrix(1,0,0,-1,348.8372,187)"><text
   transform="translate(4.5,57)"
   id="text3158"><tspan
     style="font-size:14px;font-variant:normal;font-weight:bold;writing-mode:lr-tb;fill:#031b7d;fill-opacity:1;fill-rule:nonzero;stroke:none;font-family:HelveticaNeue;-inkscape-font-specification:HelveticaNeue-Bold"
     x="0 9.5900002 18.143999 25.662001 34.216 37.827999 46.130001 51.057999"
     y="0"
     sodipodi:role="line"
     id="tspan3160">Absolute</tspan></text>

</g></g></g><g
   id="g3250"
   transform="matrix(1.5548159,0,0,1.5548159,-250.72154,-87.95358)"><g
     id="g3252"
     clip-path="url(#clipPath3254)"><g
       id="g3258"
       transform="matrix(1,0,0,-1,766.5217,32)"><text
   transform="translate(5,16)"
   id="text3260"><tspan
     style="font-size:12px;font-variant:normal;font-weight:300;writing-mode:lr-tb;fill:#747474;fill-opacity:1;fill-rule:nonzero;stroke:none;font-family:HelveticaNeue;-inkscape-font-specification:HelveticaNeue-Light"
     x="0"
     y="0"
     id="tspan3262">2</tspan></text>

</g><path
       d="m 170,180 0,46 c 0,8.2843 6.7157,15 15,15 l 46,0 c 8.2843,0 15,-6.7157 15,-15 l 0,-46 c 0,-8.2843 -6.7157,-15 -15,-15 l -46,0 c -8.2843,0 -15,6.7157 -15,15 z"
       style="fill:#b3e8ff;fill-opacity:1;fill-rule:nonzero;stroke:none"
       id="path3264"
       inkscape:connector-curvature="0" /><g
       id="g3266"
       transform="matrix(1,0,0,-1,0,600)"><path
         d="m 170,420 0,-46 c 0,-8.2843 6.7157,-15 15,-15 l 46,0 c 8.2843,0 15,6.7157 15,15 l 0,46 c 0,8.2843 -6.7157,15 -15,15 l -46,0 c -8.2843,0 -15,-6.7157 -15,-15 z"
         style="fill:none;stroke:#031b7d;stroke-width:3;stroke-linecap:butt;stroke-linejoin:miter;stroke-miterlimit:4;stroke-opacity:1;stroke-dasharray:none"
         id="path3268"
         inkscape:connector-curvature="0" /></g><g
       id="g3270"
       transform="matrix(1,0,0,-1,171.256,237)"><text
   transform="translate(18.71582,35)"
   id="text3272"><tspan
     style="font-size:32px;font-variant:normal;font-weight:bold;writing-mode:lr-tb;fill:#031b7d;fill-opacity:1;fill-rule:nonzero;stroke:none;font-family:HelveticaNeue;-inkscape-font-specification:HelveticaNeue-Bold"
     x="0 18.976"
     y="0"
     sodipodi:role="line"
     id="tspan3274">L1</tspan></text>

</g><g
       id="g3276"
       transform="matrix(1,0,0,-1,171.256,237)"><text
   transform="translate(4.5,59)"
   id="text3278"><tspan
     style="font-size:16px;font-variant:normal;font-weight:bold;writing-mode:lr-tb;fill:#031b7d;fill-opacity:1;fill-rule:nonzero;stroke:none;font-family:HelveticaNeue;-inkscape-font-specification:HelveticaNeue-Bold"
     x="0 10.672 22.528 26.976 31.424 41.200001 50.383999 56.015999"
     y="0"
     sodipodi:role="line"
     id="tspan3280">PU, data</tspan></text>

</g><path
       d="m 257,132 0,46 c 0,8.2843 6.7157,15 15,15 l 46,0 c 8.2843,0 15,-6.7157 15,-15 l 0,-46 c 0,-8.2843 -6.7157,-15 -15,-15 l -46,0 c -8.2843,0 -15,6.7157 -15,15 z"
       style="fill:#b3e8ff;fill-opacity:1;fill-rule:nonzero;stroke:none"
       id="path3282"
       inkscape:connector-curvature="0" /><g
       id="g3284"
       transform="matrix(1,0,0,-1,0,600)"><path
         d="m 257,468 0,-46 c 0,-8.2843 6.7157,-15 15,-15 l 46,0 c 8.2843,0 15,6.7157 15,15 l 0,46 c 0,8.2843 -6.7157,15 -15,15 l -46,0 c -8.2843,0 -15,-6.7157 -15,-15 z"
         style="fill:none;stroke:#031b7d;stroke-width:3;stroke-linecap:butt;stroke-linejoin:miter;stroke-miterlimit:4;stroke-opacity:1;stroke-dasharray:none"
         id="path3286"
         inkscape:connector-curvature="0" /></g><g
       id="g3288"
       transform="matrix(1,0,0,-1,263.5603,187)"><text
   transform="translate(12.93968,35)"
   id="text3290"><tspan
     style="font-size:32px;font-variant:normal;font-weight:bold;writing-mode:lr-tb;fill:#031b7d;fill-opacity:1;fill-rule:nonzero;stroke:none;font-family:HelveticaNeue;-inkscape-font-specification:HelveticaNeue-Bold"
     x="0 18.976"
     y="0"
     sodipodi:role="line"
     id="tspan3292">L2</tspan></text>

</g><g
       id="g3294"
       transform="matrix(1,0,0,-1,263.5603,187)"><text
   transform="translate(4.5,57)"
   id="text3296"><tspan
     style="font-size:14px;font-variant:normal;font-weight:bold;writing-mode:lr-tb;fill:#031b7d;fill-opacity:1;fill-rule:nonzero;stroke:none;font-family:HelveticaNeue;-inkscape-font-specification:HelveticaNeue-Bold"
     x="0 10.108 18.143999 21.756001 29.792 34.720001 38.332001 45.612"
     y="0"
     sodipodi:role="line"
     id="tspan3298">Relative</tspan></text>

</g><path
       d="m 433,180 0,46 c 0,8.2843 6.7157,15 15,15 l 46,0 c 8.2843,0 15,-6.7157 15,-15 l 0,-46 c 0,-8.2843 -6.7157,-15 -15,-15 l -46,0 c -8.2843,0 -15,6.7157 -15,15 z"
       style="fill:#f6c0ad;fill-opacity:1;fill-rule:nonzero;stroke:none"
       id="path3300"
       inkscape:connector-curvature="0" /><g
       id="g3302"
       transform="matrix(1,0,0,-1,0,648)"><path
         d="m 433,468 0,-46 c 0,-8.2843 6.7157,-15 15,-15 l 46,0 c 8.2843,0 15,6.7157 15,15 l 0,46 c 0,8.2843 -6.7157,15 -15,15 l -46,0 c -8.2843,0 -15,-6.7157 -15,-15 z"
         style="fill:none;stroke:#90002b;stroke-width:3;stroke-linecap:butt;stroke-linejoin:miter;stroke-miterlimit:4;stroke-opacity:1;stroke-dasharray:none"
         id="path3304"
         inkscape:connector-curvature="0" /></g><g
       id="g3306"
       transform="matrix(1,0,0,-1,439.9571,235)"><text
   transform="translate(4.5,26)"
   id="text3308"><tspan
     style="font-size:23px;font-variant:normal;font-weight:bold;writing-mode:lr-tb;fill:#90002b;fill-opacity:1;fill-rule:nonzero;stroke:none;font-family:HelveticaNeue;-inkscape-font-specification:HelveticaNeue-Bold"
     x="0 13.639 26.427 40.066002"
     y="0"
     sodipodi:role="line"
     id="tspan3310">L2L3</tspan></text>

</g><g
       id="g3312"
       transform="matrix(1,0,0,-1,439.9571,235)"><text
   transform="translate(9.847633,54)"
   id="text3314"><tspan
     style="font-size:23px;font-variant:normal;font-weight:bold;writing-mode:lr-tb;fill:#90002b;fill-opacity:1;fill-rule:nonzero;stroke:none;font-family:HelveticaNeue;-inkscape-font-specification:HelveticaNeue-Bold"
     x="0 16.606001 29.808001"
     y="0"
     sodipodi:role="line"
     id="tspan3316">Res</tspan></text>

</g><path
       d="m 522,132 0,46 c 0,8.2843 6.7157,15 15,15 l 60.4,0 c 8.2843,0 15,-6.7157 15,-15 l 0,-46 c 0,-8.2843 -6.7157,-15 -15,-15 l -60.4,0 c -8.2842,0 -15,6.7157 -15,15 z"
       style="fill:#c2efc3;fill-opacity:1;fill-rule:nonzero;stroke:none"
       id="path3318"
       inkscape:connector-curvature="0"
       sodipodi:nodetypes="sssssssss" /><g
       id="g3320"
       transform="matrix(1,0,0,-1,0,600)"><path
         d="m 522,468 0,-46 c 0,-8.2843 6.7157,-15 15,-15 l 62.0926,0 c 8.2843,0 15,6.7157 15,15 l 0,46 c 0,8.2843 -6.7157,15 -15,15 L 537,483 c -8.2842,0 -15,-6.7157 -15,-15 z"
         style="fill:none;stroke:#005e00;stroke-width:3;stroke-linecap:butt;stroke-linejoin:miter;stroke-miterlimit:4;stroke-opacity:1;stroke-dasharray:none"
         id="path3322"
         inkscape:connector-curvature="0"
         sodipodi:nodetypes="sssssssss" /></g><g
       id="g3324"
       transform="matrix(1,0,0,-1,535.7692,187)"><text
   id="text3326"
   x="2.7637291"
   y="25.848104"
   style="font-size:8.59755135px"><tspan
     style="font-size:22.92683601px;font-variant:normal;font-weight:bold;writing-mode:lr-tb;fill:#005e00;fill-opacity:1;fill-rule:nonzero;stroke:none;font-family:HelveticaNeue;-inkscape-font-specification:HelveticaNeue-Bold"
     x="2.7637291 16.35932"
     y="25.848104"
     sodipodi:role="line"
     id="tspan3328">L5L7</tspan></text>

</g><g
       id="g3330"
       transform="matrix(1,0,0,-1,535.7692,187)"><text
   id="text3332"
   x="-3.5"
   y="44.200012"><tspan
     style="font-size:14px;font-variant:normal;font-weight:bold;writing-mode:lr-tb;fill:#005e00;fill-opacity:1;fill-rule:nonzero;stroke:none;font-family:HelveticaNeue;-inkscape-font-specification:HelveticaNeue-Bold"
     x="-3.5"
     sodipodi:role="line"
     y="44.200012"
     id="tspan3372">Flavour +</tspan><tspan
     style="font-size:14px;font-variant:normal;font-weight:bold;writing-mode:lr-tb;fill:#005e00;fill-opacity:1;fill-rule:nonzero;stroke:none;font-family:HelveticaNeue;-inkscape-font-specification:HelveticaNeue-Bold"
     x="-3.5"
     sodipodi:role="line"
     y="61.700012"
     id="tspan3376">  Parton </tspan></text>

</g><g
       id="g3336"
       transform="matrix(1,0,0,-1,258.616,242)"><text
   transform="translate(27.4759,20)"
   id="text3338"><tspan
     style="font-size:16px;font-variant:normal;font-weight:bold;writing-mode:lr-tb;fill:#031b7d;fill-opacity:1;fill-rule:nonzero;stroke:none;font-family:HelveticaNeue;-inkscape-font-specification:HelveticaNeue-Bold"
     x="0"
     sodipodi:role="line"
     id="tspan3340"
     y="0"> </tspan></text>

</g><g
       id="g3342"
       transform="matrix(1,0,0,-1,258.616,242)"><text
   transform="translate(4.5,39)"
   id="text3344"><tspan
     style="font-size:16px;font-variant:normal;font-weight:bold;writing-mode:lr-tb;fill:#031b7d;fill-opacity:1;fill-rule:nonzero;stroke:none;font-family:HelveticaNeue;-inkscape-font-specification:HelveticaNeue-Bold"
     x="0 9.4879999 21.936001 33.487999 37.936001 49.792 59.279999 67.584 78.543999 82.991997 93.952003 105.808 117.664 122.112 136.62399"
     y="0"
     sodipodi:role="line"
     id="tspan3346">FOR DATA AND MC</tspan></text>

</g><g
       id="g3348"
       transform="matrix(1,0,0,-1,375.9679,107)"><text
   id="text3350"
   x="51.47588"
   y="-160.80008"><tspan
     style="font-size:16px;font-variant:normal;font-weight:bold;writing-mode:lr-tb;fill:#90002b;fill-opacity:1;fill-rule:nonzero;stroke:none;font-family:HelveticaNeue;-inkscape-font-specification:HelveticaNeue-Bold"
     x="51.47588 63.027882 73.395882 83.779884 88.499878 100.35588 112.21188 123.17188 132.65988"
     y="-160.80008"
     sodipodi:role="line"
     id="tspan3352">RESIDUALS</tspan></text>

</g><g
       id="g3354"
       transform="matrix(1,0,0,-1,375.9679,107)"><text
   id="text3356"
   x="-49.899986"
   y="-143.39999"><tspan
     style="font-size:16px;font-variant:normal;font-weight:bold;writing-mode:lr-tb;fill:#90002b;fill-opacity:1;fill-rule:nonzero;stroke:none;font-family:HelveticaNeue;-inkscape-font-specification:HelveticaNeue-Bold"
     x="57.076042 66.564034 79.012009 90.563957 95.011925 106.86788 116.35584 124.65981"
     sodipodi:role="line"
     id="tspan3358">FOR DATA</tspan></text>

</g><g
       id="g3360"
       transform="matrix(1,0,0,-1,521.1434,223)"><text
   transform="translate(4.5,20)"
   id="text3362"><tspan
     style="font-size:16px;font-variant:normal;font-weight:bold;writing-mode:lr-tb;fill:#005e00;fill-opacity:1;fill-rule:nonzero;stroke:none;font-family:HelveticaNeue;-inkscape-font-specification:HelveticaNeue-Bold"
     x="0 12.448 23.120001 32.896 37.616001 50.063999 61.919998 72.879997"
     y="0"
     sodipodi:role="line"
     id="tspan3364">OPTIONAL</tspan></text>

</g><g
       id="g3366"
       transform="matrix(1,0,0,-1,196.2397,168)"><text
   transform="translate(4.5,20)"
   id="text3368"><tspan
     style="font-size:16px;font-variant:normal;font-weight:bold;writing-mode:lr-tb;fill:#031b7d;fill-opacity:1;fill-rule:nonzero;stroke:none;font-family:HelveticaNeue;-inkscape-font-specification:HelveticaNeue-Bold"
     x="0 9.776"
     y="0"
     sodipodi:role="line"
     id="tspan3370">or</tspan></text>

</g></g></g><text
   xml:space="preserve"
   style="font-size:49.75410843px;font-style:normal;font-weight:normal;line-height:125%;letter-spacing:0px;word-spacing:0px;fill:#000000;fill-opacity:1;stroke:none;font-family:Sans"
   x="548.20984"
   y="-322.96759"
   id="text3405"
   sodipodi:linespacing="125%"
   transform="scale(1,-1)"><tspan
     sodipodi:role="line"
     id="tspan3407"
     x="548.20984"
     y="-322.96759" /></text>

<text
   xml:space="preserve"
   style="font-size:49.75410843px;font-style:normal;font-weight:normal;line-height:125%;letter-spacing:0px;word-spacing:0px;fill:#000000;fill-opacity:1;stroke:none;font-family:Sans"
   x="663.42072"
   y="-354.45801"
   id="text3430"
   sodipodi:linespacing="125%"
   transform="scale(1,-1)"><tspan
     sodipodi:role="line"
     id="tspan3432"
     x="663.42072"
     y="-354.45801" /></text>

</g></svg>